<svg xmlns="http://www.w3.org/2000/svg" xmlns:xlink="http://www.w3.org/1999/xlink" width="120" height="120" viewBox="0 0 120 120">
  <defs>
    <clipPath id="clip-Artboard_21">
      <rect width="120" height="120"/>
    </clipPath>
  </defs>
  <g id="Artboard_21" data-name="Artboard – 21" clip-path="url(#clip-Artboard_21)">
    <rect width="120" height="120" fill="#dbe8f4"/>
    <path id="Path_10684" data-name="Path 10684" d="M72.549,76.744H7.906a2.156,2.156,0,0,1-2.152-2.285,15.053,15.053,0,0,1,5.8-11.406c2.991-2.409,6.729-3.88,10.028-5.177,3.555-1.4,6.926-2.724,8.088-4.76a36.6,36.6,0,0,1-7.117-1.647,11.224,11.224,0,0,1-3.107-1.614,4.059,4.059,0,0,1-1.724-2.924,2.185,2.185,0,0,1,.661-1.8c1.263-1.533,1.376-6.548,1.476-10.984.142-6.267.3-13.37,2.789-19.374A18.683,18.683,0,0,1,28.759,6.7,21.61,21.61,0,0,1,40.153,2.848q.081-.006.163-.006a12.325,12.325,0,0,1,7.05,1.917,11.858,11.858,0,0,1,8.22,3.025,15.4,15.4,0,0,1,4.147,7.25c1.576,5.385,1.574,12.1,1.572,18.033,0,3.082,0,5.993.227,8.253.286,2.821.827,3.507.985,3.651a2.451,2.451,0,0,1,.731,1.721,3.989,3.989,0,0,1-1.757,3.184A11.451,11.451,0,0,1,58.3,51.508a37.766,37.766,0,0,1-7.4,1.664c1.19,2,4.518,3.318,8.025,4.7,3.287,1.3,7.012,2.769,9.992,5.179a15.073,15.073,0,0,1,5.779,11.4,2.156,2.156,0,0,1-2.152,2.285ZM10.381,72.432H70.074a10.6,10.6,0,0,0-3.864-6.026c-2.467-1.995-5.719-3.279-8.864-4.521-4.738-1.871-9.214-3.638-10.748-7.762a2.155,2.155,0,0,1-.126-.557c-.042-.465-.077-1.168-.11-2.213A2.156,2.156,0,0,1,48.3,49.141a42.488,42.488,0,0,0,7.651-1.4,11.4,11.4,0,0,0,2.551-1.04c-1.509-2.789-1.508-7.509-1.506-13.64,0-5.638,0-12.029-1.4-16.82C54.142,11.283,51.562,9.07,47.23,9.07c-.162,0-.322,0-.489.009a2.156,2.156,0,0,1-1.473-.509A7.484,7.484,0,0,0,40.4,7.154a17.355,17.355,0,0,0-9.077,3.016,14.25,14.25,0,0,0-4.687,6.249C24.454,21.677,24.3,28.351,24.17,34.24c-.12,5.3-.218,9.658-1.7,12.475,1.12.664,4,1.755,9.843,2.386a2.156,2.156,0,0,1,1.922,2.232c-.024.57-.073,1.238-.164,2.234a2.156,2.156,0,0,1-.126.555c-1.535,4.126-6.027,5.893-10.784,7.764C20,63.13,16.737,64.414,14.26,66.41A10.588,10.588,0,0,0,10.381,72.432Z" transform="translate(20.25 20.158)"/>
  </g>
</svg>
