<svg xmlns="http://www.w3.org/2000/svg" xmlns:xlink="http://www.w3.org/1999/xlink" width="120" height="120" viewBox="0 0 120 120">
  <defs>
    <clipPath id="clip-Artboard_20">
      <rect width="120" height="120"/>
    </clipPath>
  </defs>
  <g id="Artboard_20" data-name="Artboard – 20" clip-path="url(#clip-Artboard_20)">
    <rect width="120" height="120" fill="#dbe8f4"/>
    <path id="Path_10685" data-name="Path 10685" d="M72.549,76.534H7.906a2.156,2.156,0,0,1-2.152-2.285,15.053,15.053,0,0,1,5.8-11.406c2.991-2.409,6.729-3.88,10.028-5.177,3.7-1.457,7.208-2.835,8.222-5.019.155-1.876.142-3.35.127-5.042q0-.3,0-.6a13.327,13.327,0,0,1-2.069-3.124,19.658,19.658,0,0,1-1.639-4.6A5.092,5.092,0,0,1,24.769,38a9.668,9.668,0,0,1-1.731-4.85A6.075,6.075,0,0,1,24.1,28.714c-2.052-8.668-1.4-15.294,1.95-19.706,2.864-3.775,7.566-5.748,13.974-5.866h.04c4.162,0,7.317,1.12,9.038,3.178A10,10,0,0,1,55.831,10.9c3.508,5.648,1.6,14.308.571,17.88a6.087,6.087,0,0,1,1.014,4.366A9.657,9.657,0,0,1,55.685,38a5.094,5.094,0,0,1-1.448,1.277,20.076,20.076,0,0,1-1.587,4.582,13.129,13.129,0,0,1-2.033,3.137q0,.318-.005.626c-.015,1.687-.028,3.156.126,5.026,1.014,2.185,4.5,3.563,8.191,5.019,3.287,1.3,7.012,2.769,9.992,5.179a15.073,15.073,0,0,1,5.779,11.4,2.156,2.156,0,0,1-2.152,2.285ZM10.381,72.223H70.074A10.6,10.6,0,0,0,66.21,66.2c-2.467-1.995-5.719-3.279-8.864-4.521C52.608,59.8,48.132,58.037,46.6,53.913a2.155,2.155,0,0,1-.126-.557,53.762,53.762,0,0,1-.171-5.774c0-.508.009-1.034.009-1.582a2.156,2.156,0,0,1,1.082-1.869,13.73,13.73,0,0,0,2.773-6.675,2.156,2.156,0,0,1,1.921-1.915c.211-.111.8-.837,1.049-2.906a1.632,1.632,0,0,0-.318-1.431,2.156,2.156,0,0,1-.9-2.506c1.281-3.852,2.775-11.455.25-15.52a6.016,6.016,0,0,0-4.6-2.754,2.156,2.156,0,0,1-1.577-1.069c-.667-1.171-2.926-1.9-5.9-1.9-5.01.1-8.576,1.5-10.6,4.161-2.625,3.46-2.94,9.415-.912,17.222a2.156,2.156,0,0,1-.938,2.366,1.637,1.637,0,0,0-.32,1.433c.249,2.068.838,2.795,1.049,2.906a2.156,2.156,0,0,1,1.921,1.916,13.452,13.452,0,0,0,2.855,6.67A2.156,2.156,0,0,1,34.235,46c0,.543,0,1.064.009,1.567a54.03,54.03,0,0,1-.172,5.789,2.155,2.155,0,0,1-.126.557c-1.535,4.126-6.027,5.893-10.784,7.764C20,62.92,16.737,64.2,14.26,66.2A10.589,10.589,0,0,0,10.381,72.223Z" transform="translate(20.25 19.859)"/>
  </g>
</svg>
