<svg xmlns="http://www.w3.org/2000/svg" xmlns:xlink="http://www.w3.org/1999/xlink" width="120" height="120" viewBox="0 0 120 120">
  <defs>
    <clipPath id="clip-Artboard_22">
      <rect width="120" height="120"/>
    </clipPath>
  </defs>
  <g id="Artboard_22" data-name="Artboard – 22" clip-path="url(#clip-Artboard_22)">
    <rect width="120" height="120" fill="#dbe8f4"/>
    <path id="Path_10686" data-name="Path 10686" d="M43.309,3.9c-3.963,0-5.869,2.21-12.374,2.21S22.538,3.9,18.561,3.9A18.566,18.566,0,0,0,0,22.46V28.2a6.631,6.631,0,0,0,6.629,6.629H55.241A6.631,6.631,0,0,0,61.87,28.2V22.46A18.566,18.566,0,0,0,43.309,3.9ZM57.451,28.2a2.216,2.216,0,0,1-2.21,2.21H6.629a2.216,2.216,0,0,1-2.21-2.21V22.46A14.151,14.151,0,0,1,18.561,8.318c2.707,0,5.4,2.21,12.374,2.21s9.667-2.21,12.374-2.21A14.151,14.151,0,0,1,57.451,22.46ZM30.935-.52A17.676,17.676,0,0,0,48.612-18.2,17.676,17.676,0,0,0,30.935-35.875,17.676,17.676,0,0,0,13.258-18.2,17.676,17.676,0,0,0,30.935-.52Zm0-30.935A13.279,13.279,0,0,1,44.193-18.2,13.279,13.279,0,0,1,30.935-4.94,13.279,13.279,0,0,1,17.677-18.2,13.279,13.279,0,0,1,30.935-31.456Z" transform="translate(29 60.876)"/>
  </g>
</svg>
