<?xml version="1.0" encoding="UTF-8"?>
<!-- Generator: Adobe Illustrator 22.0.1, SVG Export Plug-In . SVG Version: 6.00 Build 0)  -->
<svg version="1.1" id="Layer_1" xmlns="http://www.w3.org/2000/svg" xmlns:xlink="http://www.w3.org/1999/xlink" x="0px" y="0px" viewBox="0 0 288.4 97.4" style="enable-background:new 0 0 288.4 97.4;" xml:space="preserve">
<style type="text/css">
	.st0{fill:#fff;}
</style>
<path class="st0" d="M37.4,72.3h-4.2l-17-45.7h6l14.8,40c0.8,3,0,0,0,0"/>
<path class="st0" d="M66.3,66.5C66.3,66.5,65.6,69.5,66.3,66.5l14.8-40h6l-17,45.7h-4.2"/>
<path class="st0" d="M112.3,29C124,29,130,38,130,48.5c0,1-0.2,2.9-0.2,2.9H97.4c0.3,10.8,7.6,16.7,16.4,16.7  c7.7,0,12.9-5.1,12.9-5.1l2.6,4.4c0,0-6.1,5.9-15.6,5.9c-12.6,0-22.1-9.1-22.1-22.1C91.5,37.3,100.9,29,112.3,29 M124.2,46.7  c-0.3-8.8-5.7-12.9-12-12.9c-7.1,0-13.2,4.5-14.5,12.9H124.2z"/>
<path class="st0" d="M140.5,13.2h5.7V61c0,5.5,2.5,6.4,4.7,6.4c0.8,0,1.4-0.1,1.4-0.1v5.1c0,0-1,0.2-2.1,0.2  c-3.5,0-9.7-1.1-9.7-10.3V13.2z"/>
<path class="st0" d="M161.2,13.2h5.7V61c0,5.5,2.5,6.4,4.7,6.4c0.8,0,1.4-0.1,1.4-0.1v5.1c0,0-1,0.2-2.1,0.2  c-3.5,0-9.7-1.1-9.7-10.3V13.2z"/>
<path class="st0" d="M178.3,82.8c0,0,2.4,1.9,5,1.9c3.7,0,6.3-3,8-6.9l2.6-6L176.2,30h6.3L195,60.8c0.8,2.1,1.5,4.5,1.5,4.5h0.2  c0,0,0.6-2.4,1.4-4.5L210.3,30h6.2l-20.8,51.1c-2.2,5.4-6.6,8.8-12.2,8.8c-4.4,0-7.4-2.5-7.4-2.5L178.3,82.8z"/>
<path class="st0" d="M237.9,54c0,0-0.7,1.3-1.4,2.4l-10.2,15.9h-6.7l14.9-22L220.8,30h6.7l9.1,14.2c0.7,1.1,1.4,2.4,1.4,2.4h0.1  c0,0,0.8-1.3,1.4-2.4l9.1-14.2h6.7l-13.6,20.2l14.9,22h-6.7l-10.2-15.9c-0.8-1.1-1.4-2.4-1.4-2.4H237.9L237.9,54z"/>
<path class="st0" d="M51.6,54c0,0-0.7,1.3-1.4,2.4L40,72.3h-6.7l14.9-22L34.5,30h6.7l9.1,14.2c0.7,1.1,1.4,2.4,1.4,2.4h0.1  c0,0,0.8-1.3,1.4-2.4L62.3,30H69L55.4,50.2l14.9,22h-6.7L53.3,56.4c-0.8-1.1-1.4-2.4-1.4-2.4H51.6L51.6,54z"/>
</svg>