<svg xmlns="http://www.w3.org/2000/svg" xmlns:xlink="http://www.w3.org/1999/xlink" width="250.24" height="30" viewBox="0 0 250.24 30">
  <defs>
    <clipPath id="clip-iPhone_12_Pro_Max_1">
      <rect width="250.24" height="30"/>
    </clipPath>
  </defs>
  <g id="iPhone_12_Pro_Max_1" data-name="iPhone 12 Pro Max – 1" clip-path="url(#clip-iPhone_12_Pro_Max_1)">
    <path id="Path_1" data-name="Path 1" d="M22.588,0H18.779L15.146-12.773q-.234-.835-.586-2.41t-.425-2.19q-.146.938-.476,2.432t-.549,2.227L9.565,0H5.757L2.988-10.723.176-21.416H3.75L6.812-8.936a53.939,53.939,0,0,1,1.025,5.3Q8-4.878,8.32-6.416t.586-2.49l3.486-12.51h3.472L19.438-8.848a46.986,46.986,0,0,1,1.084,5.215,38.231,38.231,0,0,1,1.055-5.332l3.047-12.451h3.545ZM37.31.293a7.837,7.837,0,0,1-5.911-2.2,8.369,8.369,0,0,1-2.131-6.072,9.182,9.182,0,0,1,1.978-6.24,6.831,6.831,0,0,1,5.435-2.271,6.676,6.676,0,0,1,5.068,1.948,7.445,7.445,0,0,1,1.86,5.361v1.86h-10.8A5.321,5.321,0,0,0,34.087-3.7a4.439,4.439,0,0,0,3.384,1.267A12.491,12.491,0,0,0,40.144-2.7,14.013,14.013,0,0,0,42.8-3.6v2.8a10.569,10.569,0,0,1-2.549.85A15.629,15.629,0,0,1,37.31.293Zm-.63-14.18a3.459,3.459,0,0,0-2.629,1.04,4.957,4.957,0,0,0-1.179,3.032h7.354a4.484,4.484,0,0,0-.967-3.04A3.307,3.307,0,0,0,36.68-13.887ZM50.962,0H47.52V-22.793h3.442Zm8.364,0H55.884V-22.793h3.442Zm2.461-16.2h3.75l3.3,9.185a17.427,17.427,0,0,1,1,3.691h.117a15.4,15.4,0,0,1,.483-1.956q.352-1.15,3.721-10.92h3.721L70.942,2.153q-1.89,5.054-6.3,5.054a9.913,9.913,0,0,1-2.227-.249V4.233a8.067,8.067,0,0,0,1.772.176q2.49,0,3.5-2.886L68.291,0ZM83.936-8.276,78.5-16.2h3.926l3.691,5.669L89.839-16.2h3.9L88.286-8.276,94.014,0h-3.9l-4-6.064L82.134,0h-3.9ZM117.129,0H105.015V-21.416h12.114v2.959h-8.613v5.83h8.071V-9.7h-8.071v6.724h8.613Zm18.516,0h-3.457V-9.961a4.36,4.36,0,0,0-.754-2.8,2.916,2.916,0,0,0-2.4-.923,3.808,3.808,0,0,0-3.193,1.289,7.117,7.117,0,0,0-1.011,4.321V0h-3.442V-16.2h2.7l.483,2.124h.176a4.793,4.793,0,0,1,2.08-1.787,6.971,6.971,0,0,1,2.988-.63q5.83,0,5.83,5.933ZM146.47-2.49a8.371,8.371,0,0,0,2.52-.4V-.293a6.949,6.949,0,0,1-1.472.417,10.143,10.143,0,0,1-1.868.168q-4.893,0-4.893-5.156v-8.73h-2.212v-1.523l2.373-1.26L142.09-19.8h2.124v3.6h4.614v2.607h-4.614v8.672a2.433,2.433,0,0,0,.623,1.838A2.27,2.27,0,0,0,146.47-2.49ZM159.3.293a7.837,7.837,0,0,1-5.911-2.2,8.369,8.369,0,0,1-2.131-6.072,9.182,9.182,0,0,1,1.978-6.24,6.831,6.831,0,0,1,5.435-2.271,6.676,6.676,0,0,1,5.068,1.948,7.445,7.445,0,0,1,1.86,5.361v1.86H154.8A5.321,5.321,0,0,0,156.079-3.7a4.439,4.439,0,0,0,3.384,1.267,12.491,12.491,0,0,0,2.673-.271,14.013,14.013,0,0,0,2.659-.9v2.8a10.569,10.569,0,0,1-2.549.85A15.629,15.629,0,0,1,159.3.293Zm-.63-14.18a3.459,3.459,0,0,0-2.629,1.04,4.957,4.957,0,0,0-1.179,3.032h7.354a4.484,4.484,0,0,0-.967-3.04A3.307,3.307,0,0,0,158.672-13.887Zm19.058-2.607a8.287,8.287,0,0,1,1.714.146l-.337,3.208a6.506,6.506,0,0,0-1.523-.176,4.409,4.409,0,0,0-3.347,1.348,4.871,4.871,0,0,0-1.282,3.5V0h-3.442V-16.2h2.7l.454,2.856h.176a6.419,6.419,0,0,1,2.1-2.3A5,5,0,0,1,177.729-16.494ZM190.664.293a5.674,5.674,0,0,1-4.775-2.212h-.205q.205,2.051.205,2.49V7.207h-3.442V-16.2h2.783q.117.454.483,2.168h.176a5.393,5.393,0,0,1,4.834-2.461,5.623,5.623,0,0,1,4.724,2.2,9.907,9.907,0,0,1,1.692,6.167,9.914,9.914,0,0,1-1.721,6.2A5.674,5.674,0,0,1,190.664.293Zm-.835-13.975a3.578,3.578,0,0,0-3,1.2,6.225,6.225,0,0,0-.945,3.838v.513a7.578,7.578,0,0,0,.938,4.285,3.487,3.487,0,0,0,3.062,1.326,3.108,3.108,0,0,0,2.754-1.465,7.565,7.565,0,0,0,.967-4.175,7.3,7.3,0,0,0-.959-4.124A3.2,3.2,0,0,0,189.829-13.682Zm19.526-2.812a8.287,8.287,0,0,1,1.714.146l-.337,3.208a6.506,6.506,0,0,0-1.523-.176,4.409,4.409,0,0,0-3.347,1.348,4.871,4.871,0,0,0-1.282,3.5V0h-3.442V-16.2h2.7l.454,2.856h.176a6.419,6.419,0,0,1,2.1-2.3A5,5,0,0,1,209.355-16.494ZM217.515,0h-3.442V-16.2h3.442Zm-3.647-20.493a1.906,1.906,0,0,1,.505-1.421,1.969,1.969,0,0,1,1.443-.5,1.927,1.927,0,0,1,1.414.5,1.906,1.906,0,0,1,.505,1.421,1.871,1.871,0,0,1-.505,1.384,1.911,1.911,0,0,1-1.414.505,1.952,1.952,0,0,1-1.443-.505A1.871,1.871,0,0,1,213.867-20.493ZM233.32-4.614a4.239,4.239,0,0,1-1.729,3.64A8.277,8.277,0,0,1,226.641.293a11.7,11.7,0,0,1-5.2-.981V-3.662a12.767,12.767,0,0,0,5.317,1.318q3.179,0,3.179-1.919a1.52,1.52,0,0,0-.352-1.025,4.161,4.161,0,0,0-1.157-.85,19.914,19.914,0,0,0-2.241-1A10.367,10.367,0,0,1,222.4-9.3a4.011,4.011,0,0,1-.989-2.812,3.694,3.694,0,0,1,1.677-3.23,7.959,7.959,0,0,1,4.563-1.15,12.924,12.924,0,0,1,5.405,1.157l-1.113,2.593a12.022,12.022,0,0,0-4.409-1.084q-2.725,0-2.725,1.553a1.562,1.562,0,0,0,.71,1.289,15.624,15.624,0,0,0,3.1,1.45,14.162,14.162,0,0,1,2.915,1.421,4.246,4.246,0,0,1,1.348,1.487A4.3,4.3,0,0,1,233.32-4.614Zm10.8,4.907a7.837,7.837,0,0,1-5.911-2.2,8.369,8.369,0,0,1-2.131-6.072,9.182,9.182,0,0,1,1.978-6.24,6.831,6.831,0,0,1,5.435-2.271,6.676,6.676,0,0,1,5.068,1.948,7.445,7.445,0,0,1,1.86,5.361v1.86h-10.8A5.321,5.321,0,0,0,240.894-3.7a4.439,4.439,0,0,0,3.384,1.267,12.491,12.491,0,0,0,2.673-.271,14.013,14.013,0,0,0,2.659-.9v2.8a10.569,10.569,0,0,1-2.549.85A15.629,15.629,0,0,1,244.116.293Zm-.63-14.18a3.459,3.459,0,0,0-2.629,1.04,4.957,4.957,0,0,0-1.179,3.032h7.354a4.484,4.484,0,0,0-.967-3.04A3.307,3.307,0,0,0,243.486-13.887Z" transform="translate(-0.176 22.793)" fill="#fff"/>
  </g>
</svg>
